<svg width="136px" height="47px" viewBox="0 0 136 47" version="1.1" xmlns="http://www.w3.org/2000/svg" xmlns:xlink="http://www.w3.org/1999/xlink">
    <!-- Generator: Sketch 46.1 (44463) - http://www.bohemiancoding.com/sketch -->
    <title>30:00</title>
    <defs></defs>
    <g id="Page-1" stroke="none" stroke-width="1" fill="none" fill-rule="evenodd">
        <g transform="translate(-846.000000, -76.000000)" class="logo">
            <path d="M870.68,107.064 C870.68,105.69866 870.381336,104.39734 869.784,103.16 C869.186664,101.92266 868.386672,100.824005 867.384,99.864 C866.381328,98.9039952 865.22934,98.1040032 863.928,97.464 C862.62666,96.8239968 861.272007,96.3546682 859.864,96.056 C861.186673,95.0319949 862.391995,94.0506714 863.48,93.112 C864.568005,92.1733286 865.506663,91.2346714 866.296,90.296 C867.085337,89.3573286 867.693331,88.3973382 868.12,87.416 C868.546669,86.4346618 868.76,85.3893389 868.76,84.28 C868.76,81.8479878 867.842676,79.8746742 866.008,78.36 C864.173324,76.8453258 861.805348,76.088 858.904,76.088 C857.53866,76.088 856.312005,76.3226643 855.224,76.792 C854.135995,77.2613357 853.165338,77.8799962 852.312,78.648 C851.458662,79.4160038 850.701337,80.2799952 850.04,81.24 C849.378663,82.2000048 848.813336,83.1919949 848.344,84.216 L848.92,84.536 C849.858671,83.0853261 850.94666,82.0720029 852.184,81.496 C853.42134,80.9199971 854.957324,80.632 856.792,80.632 C858.669343,80.632 860.25866,81.1439949 861.56,82.168 C862.86134,83.1920051 863.512,84.5786579 863.512,86.328 C863.512,87.9066746 863.17067,89.3573267 862.488,90.68 C861.80533,92.0026733 860.941339,93.2399942 859.896,94.392 C858.850661,95.5440058 857.698673,96.6106618 856.44,97.592 C855.181327,98.5733382 853.997339,99.4906624 852.888,100.344 L853.08,100.728 L853.912,100.728 C855.448008,100.728 856.909326,100.962664 858.296,101.432 C859.682674,101.901336 860.898661,102.573329 861.944,103.448 C862.989339,104.322671 863.82133,105.357327 864.44,106.552 C865.05867,107.746673 865.368,109.111992 865.368,110.648 C865.368,112.909345 864.952004,114.733326 864.12,116.12 C863.287996,117.506674 862.328005,118.583996 861.24,119.352 C860.151995,120.120004 859.106672,120.642665 858.104,120.92 C857.101328,121.197335 856.429335,121.336 856.088,121.336 C855.191996,121.336 854.424003,121.090669 853.784,120.6 C853.143997,120.109331 852.568003,119.565336 852.056,118.968 C851.543997,118.370664 851.032003,117.826669 850.52,117.336 C850.007997,116.845331 849.389337,116.6 848.664,116.6 C847.810662,116.6 847.224002,116.834664 846.904,117.304 C846.583998,117.773336 846.424,118.34933 846.424,119.032 C846.424,119.71467 846.573332,120.301331 846.872,120.792 C847.170668,121.282669 847.586664,121.687998 848.12,122.008 C848.653336,122.328002 849.250663,122.573332 849.912,122.744 C850.573337,122.914668 851.202664,123 851.8,123 C854.317346,123 856.706655,122.616004 858.968,121.848 C861.229345,121.079996 863.234658,120.002674 864.984,118.616 C866.733342,117.229326 868.119995,115.554676 869.144,113.592 C870.168005,111.629324 870.68,109.453345 870.68,107.064 Z M902.683555,91.448 C902.683555,93.7520115 902.267559,95.874657 901.435555,97.816 C900.603551,99.757343 899.494229,101.431993 898.107555,102.84 C896.720882,104.248007 895.110231,105.32533 893.275555,106.072 C891.440879,106.81867 889.520899,107.192 887.515555,107.192 C885.851547,107.192 884.112898,106.904003 882.299555,106.328 C880.486213,105.751997 878.811563,104.81334 877.275555,103.512 C875.739548,102.21066 874.480893,100.546677 873.499555,98.52 C872.518217,96.4933232 872.027555,94.0720141 872.027555,91.256 C872.027555,89.2506566 872.411551,87.3413424 873.179555,85.528 C873.947559,83.7146576 875.024882,82.1146736 876.411555,80.728 C877.798229,79.3413264 879.451546,78.2320042 881.371555,77.4 C883.291565,76.5679958 885.403544,76.152 887.707555,76.152 C889.584898,76.152 891.419546,76.4933299 893.211555,77.176 C895.003564,77.8586701 896.603548,78.8506602 898.011555,80.152 C899.419562,81.4533398 900.550218,83.0533238 901.403555,84.952 C902.256893,86.8506762 902.683555,89.0159878 902.683555,91.448 Z M899.611555,91.768 C899.611555,90.0613248 899.312892,88.4293411 898.715555,86.872 C898.118219,85.3146589 897.286227,83.9386726 896.219555,82.744 C895.152883,81.5493274 893.872896,80.6000035 892.379555,79.896 C890.886214,79.1919965 889.222231,78.84 887.387555,78.84 C885.595546,78.84 883.952896,79.1919965 882.459555,79.896 C880.966214,80.6000035 879.675561,81.5493274 878.587555,82.744 C877.49955,83.9386726 876.646225,85.3146589 876.027555,86.872 C875.408885,88.4293411 875.099555,90.0613248 875.099555,91.768 C875.099555,93.4746752 875.408885,95.1066589 876.027555,96.664 C876.646225,98.2213411 877.510216,99.5866608 878.619555,100.76 C879.728894,101.933339 881.040881,102.871996 882.555555,103.576 C884.070229,104.280004 885.723546,104.632 887.515555,104.632 C889.307564,104.632 890.950214,104.280004 892.443555,103.576 C893.936896,102.871996 895.216883,101.933339 896.283555,100.76 C897.350227,99.5866608 898.171552,98.2213411 898.747555,96.664 C899.323558,95.1066589 899.611555,93.4746752 899.611555,91.768 Z M914.65511,83.704 C914.65511,82.7226618 914.281781,81.869337 913.53511,81.144 C912.78844,80.418663 911.924449,80.056 910.94311,80.056 C909.961772,80.056 909.087114,80.3866634 908.31911,81.048 C907.551107,81.7093366 907.16711,82.5946611 907.16711,83.704 C907.16711,84.8133389 907.551107,85.6986634 908.31911,86.36 C909.087114,87.0213366 909.961772,87.352 910.94311,87.352 C911.924449,87.352 912.78844,87.0106701 913.53511,86.328 C914.281781,85.6453299 914.65511,84.770672 914.65511,83.704 Z M914.65511,103.544 C914.65511,102.562662 914.281781,101.709337 913.53511,100.984 C912.78844,100.258663 911.924449,99.896 910.94311,99.896 C909.961772,99.896 909.087114,100.226663 908.31911,100.888 C907.551107,101.549337 907.16711,102.434661 907.16711,103.544 C907.16711,104.696006 907.551107,105.570664 908.31911,106.168 C909.087114,106.765336 909.961772,107.064 910.94311,107.064 C911.924449,107.064 912.78844,106.744003 913.53511,106.104 C914.281781,105.463997 914.65511,104.610672 914.65511,103.544 Z M949.538666,91.448 C949.538666,93.7520115 949.12267,95.874657 948.290666,97.816 C947.458661,99.757343 946.349339,101.431993 944.962666,102.84 C943.575992,104.248007 941.965341,105.32533 940.130666,106.072 C938.29599,106.81867 936.376009,107.192 934.370666,107.192 C932.706657,107.192 930.968008,106.904003 929.154666,106.328 C927.341323,105.751997 925.666673,104.81334 924.130666,103.512 C922.594658,102.21066 921.336004,100.546677 920.354666,98.52 C919.373327,96.4933232 918.882666,94.0720141 918.882666,91.256 C918.882666,89.2506566 919.266662,87.3413424 920.034666,85.528 C920.802669,83.7146576 921.879992,82.1146736 923.266666,80.728 C924.653339,79.3413264 926.306656,78.2320042 928.226666,77.4 C930.146675,76.5679958 932.258654,76.152 934.562666,76.152 C936.440008,76.152 938.274657,76.4933299 940.066666,77.176 C941.858675,77.8586701 943.458659,78.8506602 944.866666,80.152 C946.274673,81.4533398 947.405328,83.0533238 948.258666,84.952 C949.112003,86.8506762 949.538666,89.0159878 949.538666,91.448 Z M946.466666,91.768 C946.466666,90.0613248 946.168002,88.4293411 945.570666,86.872 C944.973329,85.3146589 944.141338,83.9386726 943.074666,82.744 C942.007994,81.5493274 940.728006,80.6000035 939.234666,79.896 C937.741325,79.1919965 936.077341,78.84 934.242666,78.84 C932.450657,78.84 930.808006,79.1919965 929.314666,79.896 C927.821325,80.6000035 926.530671,81.5493274 925.442666,82.744 C924.35466,83.9386726 923.501335,85.3146589 922.882666,86.872 C922.263996,88.4293411 921.954666,90.0613248 921.954666,91.768 C921.954666,93.4746752 922.263996,95.1066589 922.882666,96.664 C923.501335,98.2213411 924.365327,99.5866608 925.474666,100.76 C926.584004,101.933339 927.895991,102.871996 929.410666,103.576 C930.92534,104.280004 932.578657,104.632 934.370666,104.632 C936.162675,104.632 937.805325,104.280004 939.298666,103.576 C940.792006,102.871996 942.071994,101.933339 943.138666,100.76 C944.205338,99.5866608 945.026663,98.2213411 945.602666,96.664 C946.178668,95.1066589 946.466666,93.4746752 946.466666,91.768 Z M981.606221,91.448 C981.606221,93.7520115 981.190225,95.874657 980.358221,97.816 C979.526217,99.757343 978.416894,101.431993 977.030221,102.84 C975.643547,104.248007 974.032897,105.32533 972.198221,106.072 C970.363545,106.81867 968.443564,107.192 966.438221,107.192 C964.774212,107.192 963.035563,106.904003 961.222221,106.328 C959.408878,105.751997 957.734228,104.81334 956.198221,103.512 C954.662213,102.21066 953.403559,100.546677 952.422221,98.52 C951.440883,96.4933232 950.950221,94.0720141 950.950221,91.256 C950.950221,89.2506566 951.334217,87.3413424 952.102221,85.528 C952.870225,83.7146576 953.947547,82.1146736 955.334221,80.728 C956.720894,79.3413264 958.374211,78.2320042 960.294221,77.4 C962.21423,76.5679958 964.326209,76.152 966.630221,76.152 C968.507564,76.152 970.342212,76.4933299 972.134221,77.176 C973.92623,77.8586701 975.526214,78.8506602 976.934221,80.152 C978.342228,81.4533398 979.472883,83.0533238 980.326221,84.952 C981.179558,86.8506762 981.606221,89.0159878 981.606221,91.448 Z M978.534221,91.768 C978.534221,90.0613248 978.235557,88.4293411 977.638221,86.872 C977.040884,85.3146589 976.208893,83.9386726 975.142221,82.744 C974.075549,81.5493274 972.795562,80.6000035 971.302221,79.896 C969.80888,79.1919965 968.144897,78.84 966.310221,78.84 C964.518212,78.84 962.875562,79.1919965 961.382221,79.896 C959.88888,80.6000035 958.598226,81.5493274 957.510221,82.744 C956.422215,83.9386726 955.568891,85.3146589 954.950221,86.872 C954.331551,88.4293411 954.022221,90.0613248 954.022221,91.768 C954.022221,93.4746752 954.331551,95.1066589 954.950221,96.664 C955.568891,98.2213411 956.432882,99.5866608 957.542221,100.76 C958.65156,101.933339 959.963547,102.871996 961.478221,103.576 C962.992895,104.280004 964.646212,104.632 966.438221,104.632 C968.23023,104.632 969.87288,104.280004 971.366221,103.576 C972.859562,102.871996 974.139549,101.933339 975.206221,100.76 C976.272893,99.5866608 977.094218,98.2213411 977.670221,96.664 C978.246224,95.1066589 978.534221,93.4746752 978.534221,91.768 Z" id="30:00"></path>
        </g>
    </g>
</svg>
